<?xml version="1.0" encoding="UTF-8" standalone="no"?>

<svg version="1.1" id="svg1" width="32" height="32" viewBox="0 0 32 32" xmlns="http://www.w3.org/2000/svg"
   xmlns:svg="http://www.w3.org/2000/svg">
   <defs id="defs1">
      <clipPath clipPathUnits="userSpaceOnUse" id="clipPath1852">
         <path d="M 0,0 H 595.275 V 841.89 H 0 Z" transform="translate(-234.5617,-584.57041)" id="path1852" />
      </clipPath>
      <clipPath clipPathUnits="userSpaceOnUse" id="clipPath1854">
         <path d="M 0,0 H 595.275 V 841.89 H 0 Z" transform="translate(-195.27591,-597.72341)" id="path1854" />
      </clipPath>
      <clipPath clipPathUnits="userSpaceOnUse" id="clipPath1856">
         <path d="M 0,0 H 595.275 V 841.89 H 0 Z" transform="translate(-211.8259,-596.65751)" id="path1856" />
      </clipPath>
      <clipPath clipPathUnits="userSpaceOnUse" id="clipPath1858">
         <path d="M 0,0 H 595.275 V 841.89 H 0 Z" transform="translate(-226.77921,-567.91241)" id="path1858" />
      </clipPath>
      <clipPath clipPathUnits="userSpaceOnUse" id="clipPath1860">
         <path d="M 0,0 H 595.275 V 841.89 H 0 Z" transform="translate(-264.5029,-562.87361)" id="path1860" />
      </clipPath>
      <clipPath clipPathUnits="userSpaceOnUse" id="clipPath1862">
         <path d="M 0,0 H 595.275 V 841.89 H 0 Z" transform="translate(-257.77041,-557.96021)" id="path1862" />
      </clipPath>
      <clipPath clipPathUnits="userSpaceOnUse" id="clipPath1864">
         <path d="M 0,0 H 595.275 V 841.89 H 0 Z" transform="translate(-250.7764,-555.33691)" id="path1864" />
      </clipPath>
      <clipPath clipPathUnits="userSpaceOnUse" id="clipPath1866">
         <path d="M 0,0 H 595.275 V 841.89 H 0 Z" transform="translate(-245.2126,-559.22801)" id="path1866" />
      </clipPath>
      <clipPath clipPathUnits="userSpaceOnUse" id="clipPath1868">
         <path d="M 0,0 H 595.275 V 841.89 H 0 Z" transform="translate(-243.93391,-556.33432)" id="path1868" />
      </clipPath>
      <clipPath clipPathUnits="userSpaceOnUse" id="clipPath1870">
         <path d="M 0,0 H 595.275 V 841.89 H 0 Z" transform="translate(-237.89271,-562.83011)" id="path1870" />
      </clipPath>
      <clipPath clipPathUnits="userSpaceOnUse" id="clipPath1872">
         <path d="M 0,0 H 595.275 V 841.89 H 0 Z" transform="translate(-235.36951,-558.28312)" id="path1872" />
      </clipPath>
      <clipPath clipPathUnits="userSpaceOnUse" id="clipPath1874">
         <path d="M 0,0 H 595.275 V 841.89 H 0 Z" transform="translate(-234.78561,-568.90882)" id="path1874" />
      </clipPath>
   </defs>
   <g id="g1" transform="translate(-226.35941,-271.81684)">
      <g id="group-MC0" transform="matrix(0.22449739,0,0,0.22449739,173.47829,210.0195)">
         <path id="path1851"
            d="M 0,0 C -0.65,-0.375 -2.033,-0.993 -3.282,-1.496 0.361,-6.7 4.347,-11.928 8.071,-16.509 c 2.838,-3.492 7.299,-5.784 11.467,-5.784 5.892,0 8.814,2.557 9.11,6.432 0.232,3.01 -1.293,5.029 -3.735,5.029 -2.731,0 -4.456,-2.012 -3.45,-4.885 l -0.176,-0.131 c -4.17,3.157 -1.548,8.753 3.626,9.04 5.596,0.311 9.366,-4.172 8.909,-10.921 -0.06,-0.874 -0.224,-1.728 -0.481,-2.554 0.281,-0.489 0.416,-1.072 0.36,-1.691 -0.075,-0.803 -0.444,-1.6 -1.039,-2.243 -0.697,-0.751 -1.595,-1.154 -2.463,-1.218 -0.447,-0.464 -0.914,-0.911 -1.423,-1.322 -0.06,-0.428 -0.195,-0.856 -0.431,-1.26 -0.475,-0.814 -1.262,-1.478 -2.216,-1.867 -0.591,-0.241 -1.198,-0.356 -1.778,-0.356 -0.596,0 -1.148,0.147 -1.645,0.374 -0.451,-0.126 -0.908,-0.234 -1.369,-0.323 -0.219,-1.574 -1.757,-2.746 -3.69,-2.746 h -0.119 c -1.798,0.048 -3.273,1.139 -3.616,2.551 -0.824,0.051 -1.629,0.118 -2.413,0.208 -0.336,-0.753 -0.969,-1.367 -1.821,-1.707 -0.507,-0.202 -1.065,-0.303 -1.636,-0.303 -0.457,0 -0.924,0.064 -1.382,0.194 -1.986,0.564 -3.298,2.223 -3.197,3.882 -0.341,0.153 -0.676,0.32 -1.008,0.49 -0.677,-0.837 -1.71,-1.258 -2.826,-1.258 -1.091,0 -2.262,0.401 -3.261,1.202 -0.94,0.756 -1.602,1.763 -1.861,2.834 -0.281,1.155 -0.058,2.295 0.613,3.128 0.021,0.027 0.049,0.043 0.07,0.068 -0.851,0.938 -1.691,1.887 -2.514,2.868 -0.394,-0.149 -0.811,-0.245 -1.252,-0.245 -0.338,0 -0.683,0.044 -1.028,0.134 -1.059,0.278 -2.047,0.951 -2.781,1.9 -0.736,0.947 -1.144,2.071 -1.149,3.164 -0.004,0.811 0.235,1.548 0.645,2.148 -0.826,1.122 -1.639,2.242 -2.417,3.336 -3.756,-3.813 -7.386,-4.524 -8.23,-5.327 -0.28,-0.266 -0.674,-0.181 -1.069,0.061 -1.267,-2.196 -0.431,-5.349 -3.174,-8.229 -0.389,-0.407 -0.85,-0.521 -1.303,-0.469 -0.735,-1.185 -1.341,-2.787 -1.341,-2.787 -0.135,0.063 -0.306,0.154 -0.488,0.254 -0.349,-0.746 -0.584,-1.362 -0.584,-1.362 -0.173,0.082 -0.397,0.201 -0.64,0.34 -0.34,-0.733 -0.568,-1.332 -0.568,-1.332 -0.211,0.101 -0.492,0.247 -0.799,0.433 -0.026,-0.053 -0.028,-0.095 -0.061,-0.15 -1.076,-1.811 -3.601,-3.236 -5.011,-3.376 -1.042,-0.104 -1.972,0.756 -2.507,1.674 -0.953,-0.192 -1.893,-0.748 -2.933,-1.674 -0.066,1.286 0.657,2.133 1.847,2.705 -0.431,0.091 -0.965,0.113 -1.579,-0.05 -1.203,-0.32 -1.983,-1.149 -3.23,-2.655 -0.12,1.774 0.831,3.214 1.856,3.799 1.184,0.676 2.757,1.001 4.611,0.097 0.018,-0.008 0.022,-0.018 0.039,-0.027 1.155,0.682 3.086,1.296 4.862,1.617 -0.096,0.164 -0.179,0.334 -0.242,0.513 0,0 0.642,0.182 1.401,0.584 -0.071,0.133 -0.142,0.267 -0.193,0.408 0,0 0.609,0.174 1.338,0.553 -0.106,0.176 -0.197,0.361 -0.266,0.553 0,0 1.529,0.439 2.659,1.458 -0.093,0.332 -0.1,0.672 0.064,0.978 0.664,1.235 2.722,5.017 4.94,7.678 -0.194,0.429 -0.273,0.842 -0.112,1.109 0.489,0.824 4.775,4.085 8.238,6.154 -1.542,2.228 -2.957,4.304 -4.187,6.062 -3.552,5.073 -11.579,8.343 -17.832,9.069 l 0.013,0.059 c -4.515,0.269 -8.108,4.026 -8.036,8.623 0.07,4.501 3.84,8.298 8.341,8.4 2.734,0.062 5.188,-1.17 6.794,-3.123 0.682,-0.831 1.939,-0.742 2.633,0.079 2.018,2.386 5.173,3.778 8.626,3.319 4.292,-0.57 7.753,-4.112 8.235,-8.414 0.03,-0.266 0.038,-0.527 0.046,-0.789 l 0.01,-0.002 c 0.01,-3.64 1.887,-7.637 3.874,-10.887 0.809,-1.325 1.683,-2.685 2.583,-4.056 7.922,7.036 15.154,16.495 17.538,19.143 1.39,1.543 2.796,2.619 6.154,2.742 5.485,0.201 12.703,1.016 16.83,1.652 2.391,0.368 5.161,0.947 5.094,0.013 -0.091,-1.279 -1.541,-3.054 -9.592,-4.092 2.781,-0.062 4.805,0.149 4.254,-0.953 -0.619,-1.236 -2.885,-2.171 -8.778,-3.003 3.04,0.051 3.964,-0.478 3.656,-1.282 -0.515,-1.338 -2.519,-2.032 -9.123,-2.716 2.349,0 3.169,-0.572 2.404,-1.457 C 20.98,12.677 19.164,11.898 16.226,11.445 17.463,11.007 16.409,9.377 14.79,8.831 14.122,8.606 12.312,8.046 11.298,7.94 13.237,7.694 11.627,6.038 9.848,5.437 9.064,5.174 8.137,4.982 6.909,4.881 7.916,4.39 6.106,3.018 4.548,2.493 3.804,2.242 2.752,2.064 1.6,1.961 1.547,1.428 0.834,0.481 0,0"
            style="fill:#231f20;fill-opacity:1;fill-rule:nonzero;stroke:none"
            transform="matrix(1.3333333,0,0,-1.3333333,312.74893,343.0928)" clip-path="url(#clipPath1852)" />
         <path id="path1853"
            d="m 0,0 c -2.417,0 -4.476,1.514 -5.309,3.638 0.48,-0.411 1.096,-0.668 1.777,-0.668 1.516,0 2.744,1.228 2.744,2.742 0,1.516 -1.228,2.744 -2.744,2.744 -0.681,0 -1.297,-0.258 -1.777,-0.669 0.833,2.125 2.892,3.639 5.309,3.639 3.15,0 5.713,-2.563 5.713,-5.714 C 5.713,2.562 3.15,0 0,0"
            style="fill:#ffffff;fill-opacity:1;fill-rule:nonzero;stroke:none"
            transform="matrix(1.3333333,0,0,-1.3333333,260.36787,325.55547)" clip-path="url(#clipPath1854)" />
         <path id="path1855"
            d="m 0,0 c -2.595,0 -4.797,1.643 -5.665,3.937 0.547,-0.545 1.301,-0.882 2.133,-0.882 1.667,0 3.018,1.351 3.018,3.018 0,1.666 -1.351,3.017 -3.018,3.017 -0.832,0 -1.586,-0.338 -2.133,-0.883 0.868,2.295 3.07,3.938 5.665,3.938 3.348,0 6.072,-2.724 6.072,-6.072 C 6.072,2.724 3.348,0 0,0"
            style="fill:#ffffff;fill-opacity:1;fill-rule:nonzero;stroke:none"
            transform="matrix(1.3333333,0,0,-1.3333333,282.43453,326.97667)" clip-path="url(#clipPath1856)" />
         <path id="path1857"
            d="m 0,0 h -0.001 c -0.433,-0.338 -0.992,-0.257 -1.285,-0.181 -0.601,0.159 -1.2,0.576 -1.643,1.147 -0.444,0.574 -0.7,1.257 -0.703,1.878 -0.002,0.304 0.061,0.865 0.494,1.201 0.244,0.19 0.529,0.246 0.784,0.246 0.196,0 0.373,-0.032 0.501,-0.065 0.601,-0.16 1.2,-0.576 1.644,-1.148 C 0.234,2.505 0.49,1.821 0.493,1.2 0.495,0.896 0.432,0.336 0,0"
            style="fill:#ffffff;fill-opacity:1;fill-rule:nonzero;stroke:none"
            transform="matrix(1.3333333,0,0,-1.3333333,302.37227,365.30347)" clip-path="url(#clipPath1858)" />
         <path id="path1859"
            d="m 0,0 c 0.277,0.298 0.626,0.502 0.958,0.559 0.048,0.007 0.109,0.014 0.175,0.014 0.125,0 0.268,-0.025 0.369,-0.12 L 1.503,0.451 C 1.659,0.308 1.662,0.056 1.649,-0.081 1.618,-0.419 1.441,-0.782 1.166,-1.078 0.64,-1.646 -0.062,-1.784 -0.337,-1.534 -0.613,-1.278 -0.526,-0.568 0,0"
            style="fill:#ffffff;fill-opacity:1;fill-rule:nonzero;stroke:none"
            transform="matrix(1.3333333,0,0,-1.3333333,352.67053,372.02187)" clip-path="url(#clipPath1860)" />
         <path id="path1861"
            d="M 0,0 C 0.237,0.408 0.67,0.764 1.185,0.974 1.514,1.109 1.86,1.177 2.186,1.177 2.37,1.177 2.55,1.154 2.714,1.109 2.924,1.051 3.295,0.904 3.435,0.559 H 3.436 C 3.577,0.214 3.415,-0.152 3.306,-0.339 3.067,-0.747 2.635,-1.103 2.12,-1.312 1.068,-1.744 0.091,-1.436 -0.131,-0.898 -0.272,-0.553 -0.11,-0.187 0,0"
            style="fill:#ffffff;fill-opacity:1;fill-rule:nonzero;stroke:none"
            transform="matrix(1.3333333,0,0,-1.3333333,343.69387,378.57307)" clip-path="url(#clipPath1862)" />
         <path id="path1863"
            d="m 0,0 c 0.311,0.297 0.813,0.471 1.352,0.471 0.022,0 0.044,0 0.066,-0.002 C 1.903,0.457 2.364,0.302 2.681,0.046 2.82,-0.066 3.052,-0.3 3.046,-0.597 3.033,-1.082 2.305,-1.651 1.366,-1.582 0.39,-1.558 -0.275,-0.999 -0.264,-0.514 -0.258,-0.291 -0.117,-0.113 0,0"
            style="fill:#ffffff;fill-opacity:1;fill-rule:nonzero;stroke:none"
            transform="matrix(1.3333333,0,0,-1.3333333,334.36853,382.0708)" clip-path="url(#clipPath1864)" />
         <path id="path1865"
            d="M 0,0 C 0.312,1.109 1.735,1.678 3.179,1.27 4.622,0.863 5.538,-0.365 5.226,-1.474 4.913,-2.582 3.489,-3.151 2.047,-2.745 0.603,-2.337 -0.312,-1.109 0,0"
            style="fill:#ffffff;fill-opacity:1;fill-rule:nonzero;stroke:none"
            transform="matrix(1.3333333,0,0,-1.3333333,326.95013,376.88267)" clip-path="url(#clipPath1866)" />
         <path id="path1867"
            d="m 0,0 c 0.143,-0.192 0.365,-0.575 0.252,-0.977 -0.115,-0.403 -0.506,-0.612 -0.73,-0.701 -0.474,-0.187 -1.079,-0.201 -1.656,-0.038 -1.072,0.304 -1.839,1.183 -1.641,1.882 0.15,0.524 0.816,0.848 1.593,0.848 0.258,0 0.527,-0.035 0.792,-0.11 C -0.811,0.739 -0.305,0.41 0,0"
            style="fill:#ffffff;fill-opacity:1;fill-rule:nonzero;stroke:none"
            transform="matrix(1.3333333,0,0,-1.3333333,325.2452,380.74093)" clip-path="url(#clipPath1868)" />
         <path id="path1869"
            d="M 0,0 C 0.536,0.831 1.812,0.962 2.849,0.292 3.887,-0.377 4.294,-1.594 3.759,-2.423 3.223,-3.254 1.948,-3.385 0.91,-2.715 -0.128,-2.046 -0.536,-0.83 0,0"
            style="fill:#ffffff;fill-opacity:1;fill-rule:nonzero;stroke:none"
            transform="matrix(1.3333333,0,0,-1.3333333,317.19027,372.07987)" clip-path="url(#clipPath1870)" />
         <path id="path1871"
            d="m 0,0 c -0.591,-0.737 -2.016,-0.618 -3.112,0.264 -0.57,0.458 -0.982,1.071 -1.13,1.68 -0.073,0.302 -0.144,0.869 0.206,1.303 0.331,0.41 0.861,0.481 1.178,0.481 0.016,0 0.033,0 0.047,-0.003 C -2.183,3.713 -1.495,3.443 -0.925,2.983 0.169,2.104 0.592,0.737 0,0"
            style="fill:#ffffff;fill-opacity:1;fill-rule:nonzero;stroke:none"
            transform="matrix(1.3333333,0,0,-1.3333333,313.826,378.14253)" clip-path="url(#clipPath1872)" />
         <path id="path1873"
            d="m 0,0 c 1.176,-1.338 1.294,-3.155 0.266,-4.058 -1.029,-0.903 -2.815,-0.55 -3.99,0.789 -1.175,1.338 -1.295,3.155 -0.266,4.058 C -2.962,1.692 -1.176,1.339 0,0"
            style="fill:#ffffff;fill-opacity:1;fill-rule:nonzero;stroke:none"
            transform="matrix(1.3333333,0,0,-1.3333333,313.04747,363.97493)" clip-path="url(#clipPath1874)" />
      </g>
   </g>
</svg>
